<?xml version="1.0" encoding="utf-8"?><svg width="0" height="0" style="position: absolute; background: none !important;" xmlns="http://www.w3.org/2000/svg" xmlns:xlink="http://www.w3.org/1999/xlink"><symbol viewBox="-1 -1 16 10" id="ic-arrow-down" xmlns="http://www.w3.org/2000/svg"><path d="m2 0 5 5 5-5 2 1-7 7-7-7 2-1Z"/></symbol><symbol viewBox="-1 -1 34 34" id="ic-burger" xmlns="http://www.w3.org/2000/svg"><path d="M4 7h24v3H4zm0 8h24v3H4zm0 8h24v3H4z"/></symbol><symbol viewBox="-1 -1 34 34" id="ic-close" xmlns="http://www.w3.org/2000/svg"><path d="m6.454 23.425 16.97-16.97 2.122 2.12-16.97 16.971z"/><path d="m8.575 6.454 16.97 16.97-2.12 2.122L6.453 8.576z"/></symbol><symbol viewBox="-1 -1 34 34" id="ic-facebook" xmlns="http://www.w3.org/2000/svg"><path d="M13.5 12.667H11V16h2.5v10h4.167V16h3L21 12.667h-3.333V11.25c0-.75.166-1.083.916-1.083H21V6h-3.167c-3 0-4.333 1.333-4.333 3.833v2.834Z"/></symbol><symbol viewBox="-1 -1 34 34" id="ic-instagram" xmlns="http://www.w3.org/2000/svg"><path d="M16 7.833c2.667 0 3 0 4.083.084 2.75.083 4 1.416 4.084 4.083.083 1.083.083 1.333.083 4s0 3-.083 4c-.084 2.667-1.417 4-4.084 4.083-1.083.084-1.333.084-4.083.084-2.667 0-3 0-4-.084C9.25 24 8 22.667 7.917 20c-.084-1.083-.084-1.333-.084-4s0-3 .084-4C8 9.333 9.333 8 12 7.917c1-.084 1.333-.084 4-.084ZM16 6c-2.75 0-3.083 0-4.083.083C8.25 6.25 6.25 8.25 6.083 11.917 6 12.917 6 13.25 6 16s0 3.083.083 4.083c.167 3.667 2.167 5.667 5.834 5.834C12.917 26 13.25 26 16 26s3.083 0 4.083-.083c3.667-.167 5.667-2.167 5.834-5.834C26 19.083 26 18.75 26 16s0-3.083-.083-4.083C25.75 8.25 23.75 6.25 20.083 6.083 19.083 6 18.75 6 16 6Zm0 4.833c-2.833 0-5.167 2.334-5.167 5.167 0 2.833 2.334 5.167 5.167 5.167 2.833 0 5.167-2.334 5.167-5.167 0-2.833-2.334-5.167-5.167-5.167Zm0 8.5A3.343 3.343 0 0 1 12.667 16c0-1.833 1.5-3.333 3.333-3.333 1.833 0 3.333 1.5 3.333 3.333 0 1.833-1.5 3.333-3.333 3.333ZM21.333 9.5c-.666 0-1.166.5-1.166 1.167 0 .666.5 1.166 1.166 1.166.667 0 1.167-.5 1.167-1.166C22.5 10 22 9.5 21.333 9.5Z"/></symbol><symbol viewBox="-1 -1 34 34" id="ic-twitter" xmlns="http://www.w3.org/2000/svg"><path d="M11.74 26c9.286 0 14.365-7.694 14.365-14.365 0-.219-.005-.436-.015-.653a10.273 10.273 0 0 0 2.519-2.614 10.07 10.07 0 0 1-2.9.794 5.067 5.067 0 0 0 2.22-2.793 10.12 10.12 0 0 1-3.205 1.226 5.05 5.05 0 0 0-8.605 4.604A14.334 14.334 0 0 1 5.713 6.926a5.03 5.03 0 0 0-.684 2.537c0 1.752.891 3.298 2.247 4.203a5.012 5.012 0 0 1-2.287-.632l-.001.065a5.05 5.05 0 0 0 4.05 4.95 5.053 5.053 0 0 1-2.28.086 5.055 5.055 0 0 0 4.717 3.507 10.13 10.13 0 0 1-6.27 2.161c-.408 0-.81-.023-1.205-.07A14.293 14.293 0 0 0 11.74 26Z"/></symbol></svg>