<svg width="1595" height="798" viewBox="0 0 1595 798" fill="none" xmlns="http://www.w3.org/2000/svg">
<g opacity="0.07">
<path d="M1827.47 274.985C1697.93 85.9868 1480.44 -38 1234 -38C836.907 -38 515 283.907 515 681C515 738.771 521.814 794.95 534.681 848.779L900.824 482.636C935.922 447.538 992.828 447.538 1027.93 482.636L1323.88 778.585L1827.47 274.985Z" fill="#8794BA"/>
<path d="M1912.93 443.734L1387.43 969.239C1352.33 1004.34 1295.42 1004.34 1260.32 969.239L964.375 673.29L606.104 1031.56C729.1 1251.39 964.195 1400 1234 1400C1631.09 1400 1953 1078.09 1953 681C1953 597.861 1938.89 518.017 1912.93 443.734Z" fill="#8794BA"/>
</g>
<g opacity="0.07">
<path d="M497.387 -117.35C437.929 -204.094 338.11 -261.001 225 -261.001C42.746 -261.001 -105 -113.255 -105 68.9993C-105 95.5144 -101.873 121.299 -95.9671 146.005L72.0818 -22.0439C88.191 -38.1531 114.309 -38.1531 130.418 -22.0439L266.25 113.788L497.387 -117.35Z" fill="#8794BA"/>
<path d="M536.609 -39.8988L295.418 201.292C279.309 217.402 253.191 217.402 237.082 201.292L101.25 65.4606L-63.186 229.897C-6.73432 330.792 101.168 398.999 225 398.999C407.254 398.999 555 251.253 555 68.9993C555 30.8407 548.523 -5.80507 536.609 -39.8988Z" fill="#8794BA"/>
</g>
</svg>
